<?xml version="1.0" encoding="UTF-8" standalone="no"?>
<svg
   xmlns:dc="http://purl.org/dc/elements/1.1/"
   xmlns:cc="http://creativecommons.org/ns#"
   xmlns:rdf="http://www.w3.org/1999/02/22-rdf-syntax-ns#"
   xmlns:svg="http://www.w3.org/2000/svg"
   xmlns="http://www.w3.org/2000/svg"
   xmlns:sodipodi="http://sodipodi.sourceforge.net/DTD/sodipodi-0.dtd"
   xmlns:inkscape="http://www.inkscape.org/namespaces/inkscape"
   width="137.01271"
   height="30.86544"
   viewBox="0 0 137.01271 30.86544"
   version="1.1"
   id="svg70"
   sodipodi:docname="logo.svg"
   inkscape:version="0.92.3 (2405546, 2018-03-11)">
  <metadata
     id="metadata74">
    <rdf:RDF>
      <cc:Work
         rdf:about="">
        <dc:format>image/svg+xml</dc:format>
        <dc:type
           rdf:resource="http://purl.org/dc/dcmitype/StillImage" />
      </cc:Work>
    </rdf:RDF>
  </metadata>
  <sodipodi:namedview
     pagecolor="#ffffff"
     bordercolor="#666666"
     borderopacity="1"
     objecttolerance="10"
     gridtolerance="10"
     guidetolerance="10"
     inkscape:pageopacity="0"
     inkscape:pageshadow="2"
     inkscape:window-width="1853"
     inkscape:window-height="1025"
     id="namedview72"
     showgrid="false"
     inkscape:zoom="4.4261536"
     inkscape:cx="101.08927"
     inkscape:cy="39.268501"
     inkscape:window-x="67"
     inkscape:window-y="27"
     inkscape:window-maximized="1"
     inkscape:current-layer="g94"
     inkscape:document-rotation="0" />
  <defs
     id="defs53">
    <linearGradient
       id="linear-gradient"
       y1="0.324"
       x2="1"
       y2="0.336"
       gradientUnits="objectBoundingBox">
      <stop
         offset="0"
         stop-color="#ff3158"
         id="stop43" />
      <stop
         offset="1"
         stop-color="#ff1249"
         id="stop45" />
    </linearGradient>
    <linearGradient
       id="linear-gradient-2"
       y1="0.28999999"
       x2="1"
       y2="0.303"
       gradientUnits="objectBoundingBox">
      <stop
         offset="0"
         stop-color="#ff4e70"
         id="stop48" />
      <stop
         offset="1"
         stop-color="#ff3158"
         id="stop50" />
    </linearGradient>
    <linearGradient
       id="linear-gradient-3"
       y1="0.324"
       x2="1"
       y2="0.336"
       gradientUnits="objectBoundingBox">
      <stop
         offset="0"
         stop-color="#ff3158"
         id="stop43-6" />
      <stop
         offset="1"
         stop-color="#ff1249"
         id="stop45-7" />
    </linearGradient>
    <linearGradient
       id="linear-gradient-2-5"
       y1="0.28999999"
       x2="1"
       y2="0.303"
       gradientUnits="objectBoundingBox">
      <stop
         offset="0"
         stop-color="#ff4e70"
         id="stop48-3" />
      <stop
         offset="1"
         stop-color="#ff3158"
         id="stop50-5" />
    </linearGradient>
  </defs>
  <g
     id="Group_1709"
     data-name="Group 1709"
     transform="translate(274.84348,3063.4119)">
    <g
       aria-label="VNOpenAI"
       transform="matrix(0.84694382,0,0,0.88645977,-31.235694,-422.99469)"
       id="text78"
       style="font-style:normal;font-variant:normal;font-weight:normal;font-stretch:normal;font-size:25.96850014px;line-height:1.25;font-family:'Eras Bold ITC';-inkscape-font-specification:'Eras Bold ITC';fill:#000000;fill-opacity:1;stroke:none;stroke-width:0.64920998" />
    <g
       transform="matrix(0.72154014,0,0,0.72524705,-328.70666,-3097.0647)"
       id="layer1"
       inkscape:label="Layer 1">
      <g
         transform="scale(0.26458333)"
         style="font-style:normal;font-variant:normal;font-weight:normal;font-stretch:normal;font-size:40px;line-height:1.25;font-family:sans-serif;-inkscape-font-specification:sans-serif;letter-spacing:0px;word-spacing:0px;fill:#000000;fill-opacity:1;stroke:none"
         id="flowRoot10" />
      <g
         style="font-style:normal;font-variant:normal;font-weight:normal;font-stretch:normal;font-size:medium;line-height:1.25;font-family:sans-serif;-inkscape-font-specification:sans-serif;letter-spacing:0px;word-spacing:0px;fill:#000000;fill-opacity:1;stroke:none;stroke-width:0.30961618"
         id="g94"
         transform="matrix(7.9374999,0,0,7.9375002,-65.914742,-73.401599)">
        <path
           inkscape:connector-curvature="0"
           id="rect146"
           d="m 20.332868,15.093339 h 0.952381 c 1.453634,0 2.623888,0.906649 2.623888,2.032845 v 1.296013 c 0,1.126196 -1.170254,2.032845 -2.623888,2.032845 h -0.952381 c -1.453634,0 -2.623888,-0.906649 -2.623888,-2.032845 v -1.296013 c 0,-1.126196 1.170254,-2.032845 2.623888,-2.032845 z"
           style="fill:#00aad4;fill-opacity:1;stroke-width:0.01032054" />
        <path
           inkscape:transform-center-y="-1.2564441"
           inkscape:transform-center-x="14.688296"
           inkscape:connector-curvature="0"
           id="rect146-9"
           d="m 20.397517,15.545686 h 0.813404 c 1.241512,0 2.240997,0.753456 2.240997,1.689362 v 1.077029 c 0,0.935907 -0.999485,1.689363 -2.240997,1.689363 h -0.813404 c -1.241511,0 -2.240995,-0.753456 -2.240995,-1.689363 v -1.077029 c 0,-0.935906 0.999484,-1.689362 2.240995,-1.689362 z"
           style="font-style:normal;font-variant:normal;font-weight:normal;font-stretch:normal;font-size:12.38464737px;line-height:1.25;font-family:sans-serif;-inkscape-font-specification:sans-serif;letter-spacing:0px;word-spacing:0px;fill:#00222b;fill-opacity:1;stroke:none;stroke-width:0.00869479" />
        <g
           id="text30"
           style="font-style:normal;font-weight:normal;font-size:1.26228893px;line-height:1.25;font-family:sans-serif;letter-spacing:0px;word-spacing:0px;fill:#d7eef4;fill-opacity:1;stroke:none;stroke-width:0.00977063"
           transform="matrix(0.94758675,0,0,0.96092079,1.0357838,0.36805952)"
           aria-label="+">
          <path
             inkscape:connector-curvature="0"
             id="path55"
             style="font-style:normal;font-variant:normal;font-weight:normal;font-stretch:normal;font-size:6.05898714px;font-family:Dyuthi;-inkscape-font-specification:Dyuthi;fill:#d7eef4;stroke-width:0.01159033"
             d="m 21.212229,17.826248 h 1.162377 q 0.131122,0 0.209086,0.09036 0.08859,0.08688 0.08859,0.201578 v 0.01389 q 0,0.118166 -0.08859,0.201578 -0.09214,0.09036 -0.209086,0.09036 h -1.162377 v 1.077396 q 0,0.139019 -0.102773,0.239808 -0.106316,0.100793 -0.233894,0.09731 h -0.01417 q -0.141753,0.0035 -0.24098,-0.09731 -0.09568,-0.100794 -0.09568,-0.239808 V 18.424011 H 19.36236 q -0.131122,0 -0.216174,-0.09036 -0.0815,-0.09036 -0.0815,-0.201578 v -0.01389 q 0,-0.128593 0.08505,-0.201578 0.08859,-0.09036 0.212631,-0.09036 h 1.162375 v -1.066969 q 0,-0.139018 0.09923,-0.225905 0.09568,-0.100793 0.237436,-0.100793 h 0.01417 q 0.141752,0 0.233892,0.100793 0.102774,0.100793 0.102774,0.225905 z" />
        </g>
      </g>
    </g>
    <g
       aria-label="VN AIDr"
       style="font-style:normal;font-weight:normal;font-size:40px;line-height:1.25;font-family:sans-serif;letter-spacing:0px;word-spacing:0px;fill:#ececec;fill-opacity:1;stroke:none"
       id="text79"
       transform="matrix(0.94564541,0,0,0.78616008,-11.521063,-651.31172)">
      <path
         d="m -215.81905,-3060.3037 q 0.78125,0 0.78125,0.8203 0,0.2344 -0.50781,1.9922 -0.48828,1.7383 -1.32812,4.6875 -0.83985,2.9492 -1.69922,5.918 -0.83985,2.9492 -1.67969,5.8789 -0.82031,2.9297 -1.64062,5.7226 h -3.75 q -1.66016,-5.5859 -2.96875,-10.0781 -1.3086,-4.4922 -2.1875,-7.4414 -0.85938,-2.9492 -1.3086,-4.4727 -0.44922,-1.5234 -0.52734,-1.7187 -0.0586,-0.1953 -0.0977,-0.3906 -0.0586,-0.4102 0.19531,-0.6641 0.27344,-0.2539 0.66407,-0.2734 h 2.36328 l 5.64453,18.6523 5.64453,-18.6328 z"
         style="font-style:normal;font-variant:normal;font-weight:normal;font-stretch:normal;font-family:Uroob;-inkscape-font-specification:Uroob;fill:#ececec"
         id="path39"
         inkscape:connector-curvature="0" />
      <path
         d="m -197.90889,-3036.1826 q 0,0.3906 -0.29297,0.6836 -0.29297,0.2734 -0.68359,0.2734 h -1.75781 q -1.07422,-2.1484 -3.8086,-7.0703 -2.73437,-4.9219 -4.90234,-8.9648 v 16.0351 h -3.59375 v -24.0234 q 0,-0.3906 0.29297,-0.6836 0.29297,-0.293 0.68359,-0.293 h 2.03125 q 0,0.02 0.33203,0.6641 0.33203,0.6445 0.87891,1.7187 0.54687,1.0742 1.25,2.4414 0.72265,1.3672 1.46484,2.8321 0.76172,1.4648 1.50391,2.9101 0.74219,1.4258 1.36719,2.6367 0.625,1.1914 1.05468,2.0313 0.44922,0.8398 0.58594,1.1133 v -16.3477 h 3.59375 z"
         style="font-style:normal;font-variant:normal;font-weight:normal;font-stretch:normal;font-family:Uroob;-inkscape-font-specification:Uroob;fill:#ececec"
         id="path41"
         inkscape:connector-curvature="0" />
      <path
         d="m -170.40889,-3035.2646 h -3.53516 v -10.625 h -7.42187 v 10.625 h -3.53516 v -20.8985 q 0,-1.7773 1.52344,-2.9687 1.44531,-1.1524 3.24219,-1.1524 h 5.07812 q 1.75782,0 3.16407,1.1524 1.48437,1.2304 1.48437,2.9687 z m -3.53516,-13.6329 v -6.6211 q 0,-0.7031 -0.41015,-1.1914 -0.39063,-0.4882 -1.13281,-0.4882 h -4.41407 q -0.76172,0 -1.11328,0.4882 -0.35156,0.4883 -0.35156,1.1914 v 6.6211 z"
         style="font-style:normal;font-variant:normal;font-weight:normal;font-stretch:normal;font-family:Uroob;-inkscape-font-specification:Uroob;fill:#ececec"
         id="path43"
         inkscape:connector-curvature="0" />
      <path
         d="m -164.82295,-3035.2646 h -3.59375 v -23.9844 q 0,-0.3906 0.29297,-0.6836 0.29297,-0.293 0.68359,-0.293 h 1.64063 q 0.39062,0 0.68359,0.293 0.29297,0.293 0.29297,0.6836 z"
         style="font-style:normal;font-variant:normal;font-weight:normal;font-stretch:normal;font-family:Uroob;-inkscape-font-specification:Uroob;fill:#ececec"
         id="path45"
         inkscape:connector-curvature="0" />
      <path
         d="m -148.57295,-3039.1709 q 0,1.7383 -1.05469,2.8125 -1.05469,1.0938 -2.8125,1.0938 h -10.42969 v -24.961 h 9.64844 q 1.91406,0 3.26172,1.25 1.38672,1.2695 1.38672,3.2031 z m -3.53516,-0.8398 v -15.1172 q 0,-1.3086 -1.01562,-1.8946 -0.3125,-0.1757 -0.72266,-0.1757 h -5.46875 v 18.8671 h 6.05469 q 1.01562,0 1.11328,-1.0742 0.0391,-0.2929 0.0391,-0.6054 z"
         style="font-style:normal;font-variant:normal;font-weight:normal;font-stretch:normal;font-family:Uroob;-inkscape-font-specification:Uroob;fill:#ececec"
         id="path47"
         inkscape:connector-curvature="0" />
      <path
         d="m -137.83076,-3051.417 -1.97266,-0.019 q -2.46094,0 -3.20313,1.7773 -0.2539,0.6055 -0.2539,1.3867 v 12.9883 h -3.33985 l -0.0195,-17.3047 q -0.85937,0 -0.85937,-0.6445 v -1.1328 h 3.84765 v 1.7773 q 0.27344,-0.7812 0.9961,-1.289 0.72265,-0.5078 1.54297,-0.5078 h 3.26172 z"
         style="font-style:normal;font-variant:normal;font-weight:normal;font-stretch:normal;font-family:Uroob;-inkscape-font-specification:Uroob;fill:#ececec"
         id="path49"
         inkscape:connector-curvature="0" />
    </g>
  </g>
</svg>
