<svg id="_x33_0" enable-background="new 0 0 64 64" height="512" viewBox="0 0 64 64" width="512" xmlns="http://www.w3.org/2000/svg"><g><g><g><path d="m47 58v3c0 .55-.45 1-1 1h-28c-.55 0-1-.45-1-1v-3h9 12z" fill="#969faa"/></g><g><path d="m26 54v4h-9v-2c0-1.1.9-2 2-2z" fill="#969faa"/></g><g><path d="m47 56v2h-9v-4h7c1.1 0 2 .9 2 2z" fill="#969faa"/></g><g><path d="m38 54v4h-12v-4-4h12z" fill="#aab2bd"/></g><g><path d="m60 42v6c0 1.1-.9 2-2 2h-20-12-22c-1.1 0-2-.9-2-2v-6h4 16 16z" fill="#ccd1d9"/></g><g><path d="m60 42h-58v-30c0-1.105.895-2 2-2h56z" fill="#69d6f4"/></g><g><path d="m44 34h4v4h-4z" fill="#ff826e"/></g><g><path d="m52 26h4v4h-4z" fill="#ff826e"/></g><g><path d="m52 34h4v4h-4z" fill="#b4dd7f"/></g><g><path d="m44 26h4v4h-4z" fill="#b4dd7f"/></g><g><path d="m15 16c0 .5.05.99.15 1.46l-.03.01-.72-.43c-2.11-1.27-3.4-3.54-3.4-6v-.04c0-.34.02-.67.06-1 .49-4.5 4.31-8 8.94-8h12c.55 0 1.05.22 1.41.59.37.36.59.86.59 1.41 0 1.52-.56 2.93-1.51 4.01-.85.99-2.03 1.7-3.39 1.97l-.1.02h-3.5c-2.32 0-4.64-.29-6.9-.85-.4-.1-.81-.15-1.22-.15-1.32 0-2.38 1.06-2.38 2.38z" fill="#b27946"/></g><g><path d="m32.94 10c.04.33.06.66.06 1v.04c0 2.46-1.29 4.73-3.4 6l-.72.43c.08-.41.12-.83.12-1.26v-6.21l.1-.02c1.36-.27 2.54-.98 3.39-1.97.22.64.38 1.3.45 1.99z" fill="#b27946"/></g><g><path d="m30.48 25.75-.48-.08-4-.67-4 6-4-6-4 .67-.48.08c-4.34.72-7.52 4.47-7.52 8.87v7.38h16 16v-7.38c0-4.4-3.18-8.15-7.52-8.87z" fill="#e6e9ed"/></g><g><circle cx="30" cy="36" fill="#fcd770" r="2"/></g><g><path d="m18.71 22.18c.99.52 2.12.82 3.32.82h.18c1.11 0 2.17-.27 3.1-.75l.69 2.75-4 6-4-6z" fill="#f0d0b4"/></g><g><path d="m18.71 22.18c-1.8-.96-3.12-2.67-3.56-4.72-.1-.47-.15-.96-.15-1.46v-4.62c0-1.32 1.06-2.38 2.38-2.38.41 0 .82.05 1.22.15 2.26.56 4.58.85 6.9.85h3.5v6.21c0 .43-.04.85-.12 1.26-.39 2.09-1.74 3.84-3.57 4.78-.93.48-1.99.75-3.1.75h-.18c-1.2 0-2.33-.3-3.32-.82z" fill="#f0d0b4"/></g><g><path d="m62 4v16c0 1.1-.9 2-2 2h-17l-2.6 3.47c-.25.33-.65.53-1.07.53-.73 0-1.33-.6-1.33-1.33v-14.67-6c0-1.1.9-2 2-2h20c1.1 0 2 .9 2 2z" fill="#e6e9ed"/></g><g><path d="m56 11v2c0 .55-.45 1-1 1h-3v3c0 .55-.45 1-1 1h-2c-.55 0-1-.45-1-1v-3h-3c-.55 0-1-.45-1-1v-2c0-.55.45-1 1-1h3v-3c0-.55.45-1 1-1h2c.55 0 1 .45 1 1v3h3c.55 0 1 .45 1 1z" fill="#fcd770"/></g></g><g><circle cx="19" cy="14" r="1"/><circle cx="25" cy="14" r="1"/><path d="m24 16.764c-.381.762-1.147 1.236-2 1.236s-1.619-.474-2-1.236l-.105-.211-1.789.895.105.211c.722 1.444 2.174 2.341 3.789 2.341s3.067-.897 3.789-2.342l.105-.211-1.789-.895z"/><path d="m55 9h-2v-2c0-1.103-.897-2-2-2h-2c-1.103 0-2 .897-2 2v2h-2c-1.103 0-2 .897-2 2v2c0 1.103.897 2 2 2h2v2c0 1.103.897 2 2 2h2c1.103 0 2-.897 2-2v-2h2c1.103 0 2-.897 2-2v-2c0-1.103-.897-2-2-2zm0 4h-4v4h-2v-4h-4v-2h4v-4h2v4l4 .003z"/><path d="m60 1h-20c-1.654 0-3 1.346-3 3v5h-3.209c-.053-.262-.116-.521-.19-.777.883-1.191 1.399-2.659 1.399-4.223 0-1.654-1.346-3-3-3h-12c-4.821 0-8.855 3.429-9.794 8h-6.206c-1.654 0-3 1.346-3 3v36c0 1.654 1.346 3 3 3h21v2h-6c-1.654 0-3 1.346-3 3v5c0 1.103.897 2 2 2h28c1.103 0 2-.897 2-2v-5c0-1.654-1.346-3-3-3h-6v-2h19c1.654 0 3-1.346 3-3v-25.184c1.161-.414 2-1.514 2-2.816v-16c0-1.654-1.346-3-3-3zm-23 10v13.667c0 1.286 1.047 2.333 2.333 2.333.73 0 1.428-.349 1.866-.933l2.301-3.067h15.5v18h-20v-6.376c0-4.909-3.514-9.057-8.356-9.864l-3.833-.639-.348-1.393c1.614-1.057 2.807-2.695 3.292-4.616l.361-.216c2.396-1.437 3.884-4.065 3.884-6.896zm-24 21.101c-2.279.465-4 2.485-4 4.899v2h2v-2c0-1.654 1.346-3 3-3s3 1.346 3 3v2h2v-2c0-2.414-1.721-4.434-4-4.899v-5.587l2.527-.421 3.473 5.21v9.697h-14v-6.376c0-3.691 2.485-6.844 6-7.745zm9.21-10.101h-.176c-3.327 0-6.034-2.691-6.034-6v-4.622c0-.76.618-1.378 1.378-1.378.331 0 .661.041.982.121 2.334.583 4.737.879 7.141.879h2.499v5.21c0 3.193-2.597 5.79-5.79 5.79zm-.176 2h.176c.842 0 1.652-.138 2.412-.387l.3 1.2-2.922 4.384-2.923-4.384.315-1.258c.828.288 1.717.445 2.642.445zm.966 7.303 3.473-5.21 2.527.421v6.671c-1.161.414-2 1.514-2 2.816 0 1.654 1.346 3 3 3s3-1.346 3-3c0-1.302-.839-2.402-2-2.816v-6.306c3.515.901 6 4.054 6 7.745v6.376h-14zm8 4.697c0 .551-.449 1-1 1s-1-.449-1-1 .449-1 1-1 1 .449 1 1zm.91-26.156c.056.389.09.785.09 1.193 0 1.709-.751 3.327-2 4.454v-4.709c.692-.215 1.331-.539 1.91-.938zm-11.91-6.844h12c.551 0 1 .449 1 1 0 2.422-1.724 4.525-4.099 5h-3.4c-2.242 0-4.481-.276-6.656-.819-.479-.12-.973-.181-1.467-.181-1.862 0-3.378 1.516-3.378 3.378v4.128c-1.254-1.128-2-2.764-2-4.507 0-4.41 3.589-7.999 8-7.999zm-16 8h6.002c0 .012-.002.024-.002.037 0 2.794 1.488 5.422 3.884 6.86l.409.245c.519 1.859 1.699 3.444 3.268 4.496l-.371 1.484-3.833.639c-4.843.806-8.357 4.954-8.357 9.863v6.376h-2v-29c0-.551.449-1 1-1zm15 44h6v2h-7v-1c0-.551.449-1 1-1zm-1 6v-2h28v2zm27-6c.551 0 1 .449 1 1v1h-7v-2zm-8 2h-10v-6h10zm21-8h-54c-.551 0-1-.449-1-1v-5h56v5c0 .551-.449 1-1 1zm3-29c0 .551-.449 1-1 1h-17.5l-2.9 3.867c-.172.23-.599.088-.6-.201v-20.666c0-.551.449-1 1-1h20c.551 0 1 .449 1 1z"/><path d="m57 25h-6v6h6zm-2 4h-2v-2h2z"/><path d="m57 33h-6v6h6zm-2 4h-2v-2h2z"/><path d="m49 25h-6v6h6zm-2 4h-2v-2h2z"/><path d="m49 33h-6v6h6zm-2 4h-2v-2h2z"/><path d="m27 45h6v2h-6z"/><path d="m35 45h2v2h-2z"/></g></g></svg>